<svg width="25" height="24" viewBox="0 0 25 24" fill="none" xmlns="http://www.w3.org/2000/svg">
<mask id="mask0_1_161" style="mask-type:alpha" maskUnits="userSpaceOnUse" x="0" y="0" width="25" height="24">
<rect x="0.851562" width="24" height="24" fill="#D9D9D9"/>
</mask>
<g mask="url(#mask0_1_161)">
<path d="M12.2285 14.0211L9.99394 11.7865C9.70932 11.5019 9.64489 11.1747 9.80066 10.8048C9.95643 10.4349 10.2369 10.25 10.642 10.25H15.0804C15.4855 10.25 15.766 10.4349 15.9217 10.8048C16.0775 11.1747 16.0131 11.5019 15.7285 11.7865L13.4939 14.0211C13.4003 14.1147 13.3016 14.1833 13.1977 14.2269C13.0939 14.2705 12.9817 14.2922 12.8612 14.2922C12.7407 14.2922 12.6285 14.2705 12.5247 14.2269C12.4208 14.1833 12.3221 14.1147 12.2285 14.0211Z" fill="#8A9495"/>
</g>
</svg>
