<svg width="25" height="24" viewBox="0 0 25 24" fill="none" xmlns="http://www.w3.org/2000/svg">
<mask id="mask0_1_162" style="mask-type:alpha" maskUnits="userSpaceOnUse" x="0" y="0" width="25" height="24">
<rect x="0.851562" width="24" height="24" fill="#D9D9D9"/>
</mask>
<g mask="url(#mask0_1_162)">
<path d="M10.642 13.75C10.2369 13.75 9.95643 13.565 9.80066 13.1952C9.64489 12.8253 9.70932 12.498 9.99394 12.2134L12.2285 9.97885C12.3221 9.88525 12.4208 9.81666 12.5247 9.77308C12.6285 9.72949 12.7407 9.7077 12.8612 9.7077C12.9817 9.7077 13.0939 9.72949 13.1977 9.77308C13.3016 9.81666 13.4003 9.88525 13.4939 9.97885L15.7285 12.2134C16.0131 12.498 16.0775 12.8253 15.9217 13.1952C15.766 13.565 15.4855 13.75 15.0804 13.75H10.642Z" fill="#8A9495"/>
</g>
</svg>
