<svg width="24" height="24" viewBox="0 0 24 24" fill="none" xmlns="http://www.w3.org/2000/svg">
<mask id="mask0_60_326" style="mask-type:alpha" maskUnits="userSpaceOnUse" x="2" y="2" width="20" height="20">
<rect x="2" y="2" width="20" height="20" fill="#D9D9D9"/>
</mask>
<g mask="url(#mask0_60_326)">
<path d="M10.7531 14.5846C10.3759 14.5846 10.0589 14.455 9.80192 14.1957C9.54498 13.9364 9.4165 13.6182 9.4165 13.241V7.75459C9.4165 7.3774 9.54614 7.06033 9.8054 6.80339C10.0646 6.54644 10.3829 6.41797 10.7601 6.41797H16.2465C16.6237 6.41797 16.9408 6.5476 17.1977 6.80686C17.4547 7.06611 17.5831 7.38434 17.5831 7.76153V13.248C17.5831 13.6252 17.4535 13.9422 17.1942 14.1992C16.935 14.4561 16.6168 14.5846 16.2396 14.5846H10.7531ZM7.75625 17.5846C7.38114 17.5846 7.06407 17.4551 6.80505 17.1961C6.54602 16.937 6.4165 16.62 6.4165 16.2448V10.6952C6.4165 10.5417 6.46802 10.4131 6.57107 10.3093C6.67409 10.2054 6.80176 10.1535 6.95407 10.1535C7.10637 10.1535 7.23541 10.2054 7.34117 10.3093C7.44693 10.4131 7.49982 10.5417 7.49982 10.6952V16.2448C7.49982 16.309 7.52652 16.3677 7.57994 16.4212C7.63337 16.4746 7.69214 16.5013 7.75625 16.5013H13.3059C13.4594 16.5013 13.588 16.5528 13.6918 16.6558C13.7957 16.7589 13.8476 16.8865 13.8476 17.0388C13.8476 17.1911 13.7957 17.3202 13.6918 17.4259C13.588 17.5317 13.4594 17.5846 13.3059 17.5846H7.75625Z" fill="black"/>
</g>
</svg>
