<svg width="129" height="128" viewBox="0 0 128 128" fill="none" xmlns="http://www.w3.org/2000/svg">
<circle cx="71.3516" cy="64" r="45.5" fill="url(#paint0_linear_1_168)"/>
<mask id="mask0_1_168" style="mask-type:alpha" maskUnits="userSpaceOnUse" x="0" y="0" width="129" height="128">
<rect x="0.851562" width="128" height="128" fill="#D9D9D9"/>
</mask>
<g mask="url(#mask0_1_168)">
<path d="M43.7952 85.0564C44.2533 85.5145 44.7422 85.7436 45.2618 85.7436C45.7815 85.7436 46.2704 85.5145 46.7285 85.0564L64.8516 66.9333L83.108 85.1897C83.4772 85.559 83.9439 85.7214 84.508 85.6769C85.0721 85.6325 85.5387 85.4256 85.908 85.0564C86.3661 84.5983 86.5952 84.1094 86.5952 83.5897C86.5952 83.0701 86.3661 82.5812 85.908 82.1231L67.7849 64L86.0413 45.7436C86.4105 45.3744 86.5729 44.9077 86.5285 44.3436C86.4841 43.7795 86.2772 43.3128 85.908 42.9436C85.4498 42.4855 84.9609 42.2564 84.4413 42.2564C83.9217 42.2564 83.4328 42.4855 82.9746 42.9436L64.8516 61.0667L46.5952 42.8103C46.2259 42.441 45.7593 42.2786 45.1952 42.3231C44.6311 42.3675 44.1644 42.5744 43.7952 42.9436C43.337 43.4017 43.108 43.8906 43.108 44.4103C43.108 44.9299 43.337 45.4188 43.7952 45.8769L61.9182 64L43.6618 82.2564C43.2926 82.6256 43.1302 83.0923 43.1746 83.6564C43.2191 84.2205 43.4259 84.6872 43.7952 85.0564ZM64.8516 112C58.1165 112 51.8293 110.764 45.99 108.292C40.1507 105.821 35.0704 102.424 30.749 98.1025C26.4276 93.7812 23.031 88.7009 20.5592 82.8616C18.0874 77.0222 16.8516 70.735 16.8516 64C16.8516 57.2854 18.0874 51.0085 20.5592 45.1692C23.031 39.3299 26.4276 34.2496 30.749 29.9281C35.0704 25.6068 40.1507 22.2051 45.99 19.7231C51.8293 17.241 58.1165 16 64.8516 16C71.5661 16 77.8431 17.241 83.6824 19.7231C89.5217 22.2051 94.602 25.6068 98.9234 29.9281C103.245 34.2496 106.646 39.3299 109.129 45.1692C111.611 51.0085 112.852 57.2854 112.852 64C112.852 70.735 111.611 77.0222 109.129 82.8616C106.646 88.7009 103.245 93.7812 98.9234 98.1025C94.602 102.424 89.5217 105.821 83.6824 108.292C77.8431 110.764 71.5661 112 64.8516 112ZM64.8516 107.897C76.9541 107.897 87.296 103.607 95.8772 95.0256C104.458 86.4445 108.749 76.1026 108.749 64C108.749 51.8974 104.458 41.5556 95.8772 32.9744C87.296 24.3932 76.9541 20.1025 64.8516 20.1025C52.749 20.1025 42.4071 24.3932 33.826 32.9744C25.2447 41.5556 20.9541 51.8974 20.9541 64C20.9541 76.1026 25.2447 86.4445 33.826 95.0256C42.4071 103.607 52.749 107.897 64.8516 107.897Z" fill="#1C1B1F"/>
</g>
<defs>
<linearGradient id="paint0_linear_1_168" x1="32.8516" y1="38" x2="100.852" y2="102.5" gradientUnits="userSpaceOnUse">
<stop stop-color="#D63650"/>
<stop offset="1" stop-color="white"/>
</linearGradient>
</defs>
</svg>
