<svg width="104" height="14" viewBox="0 0 104 14" fill="none" xmlns="http://www.w3.org/2000/svg">
<path d="M6.66578 13.2549C10.2001 13.2549 12.8678 10.4852 12.8678 6.88293C12.8678 3.28066 10.2001 0.544972 6.66578 0.544972C3.13148 0.544972 0.463757 3.28066 0.463757 6.88293C0.463757 10.4852 3.13148 13.2549 6.66578 13.2549ZM6.66578 11.5727C4.08302 11.5727 2.40083 9.49968 2.40083 6.88293C2.40083 4.26619 4.08302 2.22717 6.66578 2.22717C9.24855 2.22717 10.9307 4.26619 10.9307 6.88293C10.9307 9.49968 9.24855 11.5727 6.66578 11.5727ZM15.6016 13L18.6941 7.9874L21.7527 13H23.9446L20.0705 6.81497L23.7237 0.799849H21.6507L18.7451 5.55757L15.9415 0.799849H13.7835L17.3688 6.747L13.4267 13H15.6016ZM31.0618 8.42919L35.4627 0.799849H33.5596L30.1782 6.67903L26.8308 0.799849H24.7918L29.1757 8.42919V13H31.0618V8.42919ZM41.7483 13.2549C45.4866 13.2549 47.8824 10.5872 47.8144 6.67903H41.6294V8.17431H45.8434C45.5035 10.2643 44.0762 11.6576 41.8163 11.6576C39.0976 11.6576 37.4494 9.61862 37.4494 6.91692C37.4494 4.04529 39.1826 2.22717 41.5954 2.22717C43.6854 2.22717 45.0278 3.43359 45.4866 4.99684H47.6615C46.9139 2.46505 44.7899 0.544972 41.6464 0.544972C38.0951 0.544972 35.5123 3.28066 35.5123 6.88293C35.5123 10.5872 38.231 13.2549 41.7483 13.2549ZM57.7365 11.3688H51.8743V7.52862H57.1078V5.89741H51.8743V2.43107H57.6175V0.799849H50.0052V13H57.7365V11.3688ZM68.323 13H70.2091V0.799849H68.476V10.0774L62.206 0.799849H60.167V13H61.9001V3.46757L68.323 13ZM77.3142 8.75204C80.0499 8.75204 81.8171 7.30773 81.8171 4.74196C81.8171 2.19318 80.0499 0.799849 77.3142 0.799849H73.0833V13H74.9524V8.75204H77.3142ZM77.2973 2.38009C78.9455 2.38009 79.948 3.24668 79.948 4.75895C79.948 6.27123 78.9455 7.17179 77.2973 7.17179H74.9524V2.38009H77.2973ZM91.4731 13H93.4611L88.8224 0.799849H86.7664L82.0936 13H83.9797L85.1011 9.97545H90.3686L91.4731 13ZM87.7519 2.83887L89.8079 8.46318H85.6619L87.7519 2.83887ZM98.8525 8.42919L103.253 0.799849H101.35L97.9689 6.67903L94.6215 0.799849H92.5825L96.9664 8.42919V13H98.8525V8.42919Z" fill="#50AF95"/>
</svg>
