<svg width="133" height="23" viewBox="0 0 133 23" fill="none" xmlns="http://www.w3.org/2000/svg">
<ellipse cx="10.9819" cy="11.6986" rx="10.9819" ry="11.3014" fill="url(#paint0_radial_1_152)"/>
<path d="M16.0506 16.8934H13.6867L14.7518 15.8153C15.5571 15.062 15.9857 14.5814 15.9857 13.88C15.9857 13.0747 15.2583 12.3473 14.0893 12.3473C12.9593 12.3473 12.128 13.0487 12.128 14.0748H12.9983C12.9983 13.5033 13.4139 13.1656 14.0374 13.1656C14.6479 13.1656 15.0375 13.5293 15.0375 13.9969C15.0375 14.5034 14.6738 14.8931 14.0764 15.4516L12.2839 17.1791L12.2709 17.6987H16.0506V16.8934Z" fill="#50AF95"/>
<path d="M35.6658 18.2549C39.2001 18.2549 41.8678 15.4852 41.8678 11.8829C41.8678 8.28066 39.2001 5.54497 35.6658 5.54497C32.1315 5.54497 29.4638 8.28066 29.4638 11.8829C29.4638 15.4852 32.1315 18.2549 35.6658 18.2549ZM35.6658 16.5727C33.083 16.5727 31.4008 14.4997 31.4008 11.8829C31.4008 9.26619 33.083 7.22717 35.6658 7.22717C38.2485 7.22717 39.9307 9.26619 39.9307 11.8829C39.9307 14.4997 38.2485 16.5727 35.6658 16.5727ZM44.6016 18L47.6941 12.9874L50.7527 18H52.9446L49.0705 11.815L52.7237 5.79985H50.6507L47.7451 10.5576L44.9415 5.79985H42.7835L46.3688 11.747L42.4267 18H44.6016ZM60.0618 13.4292L64.4627 5.79985H62.5596L59.1782 11.679L55.8308 5.79985H53.7918L58.1757 13.4292V18H60.0618V13.4292ZM70.7483 18.2549C74.4866 18.2549 76.8824 15.5872 76.8144 11.679H70.6294V13.1743H74.8434C74.5035 15.2643 73.0762 16.6576 70.8163 16.6576C68.0976 16.6576 66.4494 14.6186 66.4494 11.9169C66.4494 9.04529 68.1826 7.22717 70.5954 7.22717C72.6854 7.22717 74.0278 8.43359 74.4866 9.99684H76.6615C75.9139 7.46505 73.7899 5.54497 70.6464 5.54497C67.0951 5.54497 64.5123 8.28066 64.5123 11.8829C64.5123 15.5872 67.231 18.2549 70.7483 18.2549ZM86.7365 16.3688H80.8743V12.5286H86.1078V10.8974H80.8743V7.43107H86.6175V5.79985H79.0052V18H86.7365V16.3688ZM97.323 18H99.2091V5.79985H97.476V15.0774L91.206 5.79985H89.167V18H90.9001V8.46757L97.323 18ZM106.314 13.752C109.05 13.752 110.817 12.3077 110.817 9.74196C110.817 7.19318 109.05 5.79985 106.314 5.79985H102.083V18H103.952V13.752H106.314ZM106.297 7.38009C107.945 7.38009 108.948 8.24668 108.948 9.75895C108.948 11.2712 107.945 12.1718 106.297 12.1718H103.952V7.38009H106.297ZM120.473 18H122.461L117.822 5.79985H115.766L111.094 18H112.98L114.101 14.9755H119.369L120.473 18ZM116.752 7.83887L118.808 13.4632H114.662L116.752 7.83887ZM127.852 13.4292L132.253 5.79985H130.35L126.969 11.679L123.621 5.79985H121.582L125.966 13.4292V18H127.852V13.4292Z" fill="#50AF95"/>
<defs>
<radialGradient id="paint0_radial_1_152" cx="0" cy="0" r="1" gradientUnits="userSpaceOnUse" gradientTransform="translate(10.9819 11.6986) rotate(90) scale(11.3014 10.9819)">
<stop offset="0.557292" stop-color="#50AF95" stop-opacity="0"/>
<stop offset="1" stop-color="#50AF95"/>
</radialGradient>
</defs>
</svg>
