<svg width="25" height="24" viewBox="0 0 25 24" fill="none" xmlns="http://www.w3.org/2000/svg">
<g clip-path="url(#clip0_1_157)">
<path d="M17.9557 8.58611C17.5911 8.37763 17.1224 8.37763 16.7057 8.58611L13.7891 10.3061L11.8099 11.4006L8.94531 13.1206C8.58073 13.3291 8.11198 13.3291 7.69531 13.1206L5.45573 11.7654C5.09115 11.557 4.83073 11.14 4.83073 10.6709V8.06491C4.83073 7.64794 5.03906 7.23098 5.45573 6.97038L7.69531 5.66737C8.0599 5.45889 8.52865 5.45889 8.94531 5.66737L11.1849 7.0225C11.5495 7.23098 11.8099 7.64794 11.8099 8.11703V9.837L13.7891 8.69035V6.91826C13.7891 6.50129 13.5807 6.08433 13.1641 5.82373L8.9974 3.37407C8.63281 3.16559 8.16406 3.16559 7.7474 3.37407L3.47656 5.87585C3.0599 6.08433 2.85156 6.50129 2.85156 6.91826V11.8176C2.85156 12.2345 3.0599 12.6515 3.47656 12.9121L7.69531 15.3618C8.0599 15.5702 8.52865 15.5702 8.94531 15.3618L11.8099 13.6939L13.7891 12.5473L16.6536 10.8794C17.0182 10.6709 17.487 10.6709 17.9036 10.8794L20.1432 12.1824C20.5078 12.3909 20.7682 12.8079 20.7682 13.2769V15.883C20.7682 16.2999 20.5599 16.7169 20.1432 16.9775L17.9557 18.2805C17.5911 18.489 17.1224 18.489 16.7057 18.2805L14.4661 16.9775C14.1016 16.769 13.8411 16.352 13.8411 15.883V14.2151L11.862 15.3618V17.0817C11.862 17.4987 12.0703 17.9157 12.487 18.1763L16.7057 20.6259C17.0703 20.8344 17.5391 20.8344 17.9557 20.6259L22.1745 18.1763C22.5391 17.9678 22.7995 17.5508 22.7995 17.0817V12.1303C22.7995 11.7133 22.5911 11.2964 22.1745 11.0358L17.9557 8.58611Z" fill="#8247E5"/>
</g>
<defs>
<clipPath id="clip0_1_157">
<rect width="20" height="17.4603" fill="white" transform="translate(2.85156 3.26984)"/>
</clipPath>
</defs>
</svg>
