<svg width="128" height="128" viewBox="0 0 128 128" fill="none" xmlns="http://www.w3.org/2000/svg">
<circle cx="63.4995" cy="49.1641" r="30.5" fill="url(#paint0_linear_1_332)"/>
<mask id="mask0_1_332" style="mask-type:alpha" maskUnits="userSpaceOnUse" x="-1" y="0" width="129" height="128">
<rect x="-0.000488281" width="128" height="128" fill="#D9D9D9"/>
</mask>
<g mask="url(#mask0_1_332)">
<path d="M36.7175 109.949C30.9465 109.949 26.0508 107.939 22.0303 103.918C18.0098 99.8975 15.9995 95.0017 15.9995 89.2308C15.9995 83.4599 18.0098 78.5641 22.0303 74.5436C26.0508 70.5231 30.9465 68.5128 36.7175 68.5128C42.4884 68.5128 47.3842 70.5231 51.4047 74.5436C55.4252 78.5641 57.4354 83.4599 57.4354 89.2308C57.4354 95.0017 55.4252 99.8975 51.4047 103.918C47.3842 107.939 42.4884 109.949 36.7175 109.949ZM26.1226 99.8564C26.567 100.232 27.032 100.421 27.5175 100.421C28.0029 100.421 28.4337 100.232 28.8098 99.8564L36.7175 91.9488L44.6251 99.8564C45.0012 100.164 45.4217 100.33 45.8867 100.354C46.3517 100.378 46.8064 100.202 47.2508 99.8256C47.6268 99.4496 47.8148 99.024 47.8148 98.5487C47.8148 98.0735 47.6268 97.6479 47.2508 97.2719L39.2406 89.2616L47.3431 81.1589C47.6508 80.8513 47.8166 80.4428 47.8406 79.9333C47.8645 79.4239 47.6884 78.9812 47.3123 78.6052C46.9362 78.2291 46.5157 78.0411 46.0508 78.0411C45.5859 78.0411 45.1653 78.2291 44.7892 78.6052L36.7175 86.5744L28.6456 78.6052C28.338 78.2975 27.9346 78.1265 27.4354 78.0923C26.9363 78.0581 26.4987 78.2291 26.1226 78.6052C25.7465 78.9812 25.5584 79.4068 25.5584 79.882C25.5584 80.3573 25.7465 80.7829 26.1226 81.1589L34.1636 89.2308L26.1226 97.1692C25.8148 97.5453 25.6439 97.9932 25.6098 98.5128C25.5756 99.0325 25.7465 99.4803 26.1226 99.8564ZM108.225 105.99L75.8867 73.5488C74.3893 74.7317 72.6235 75.9436 70.5892 77.1847C68.5551 78.4257 66.5773 79.3914 64.6559 80.082C64.6218 79.2479 64.526 78.4599 64.3687 77.718C64.2115 76.9761 63.9824 76.3111 63.6815 75.7231C68.8235 73.9931 73.1636 70.9213 76.702 66.5077C80.2405 62.0941 82.0098 56.7385 82.0098 50.4411C82.0098 43.1726 79.4593 36.9828 74.3585 31.8717C69.2577 26.7606 63.073 24.2051 55.8046 24.2051C48.5157 24.2051 42.3157 26.7606 37.2046 31.8717C32.0935 36.9828 29.5379 43.1726 29.5379 50.4411C29.5379 51.9522 29.6935 53.53 30.0046 55.1744C30.3157 56.8189 30.6593 58.2872 31.0354 59.5795C30.4952 59.6205 29.8559 59.7556 29.1175 59.9847C28.379 60.2137 27.7055 60.424 27.097 60.6153C26.6115 59.2889 26.2132 57.6991 25.902 55.8461C25.5909 53.9932 25.4354 52.1915 25.4354 50.4411C25.4354 41.9556 28.3756 34.7778 34.2559 28.9077C40.1363 23.0376 47.3192 20.1025 55.8046 20.1025C64.2012 20.1025 71.3516 23.0427 77.2559 28.9231C83.1602 34.8034 86.1123 41.9761 86.1123 50.4411C86.1123 54.2633 85.4115 57.9385 84.0098 61.4667C82.6081 64.9949 80.82 68 78.6456 70.482L111.323 102.892C111.781 103.35 112.01 103.867 112.01 104.441C112.01 105.015 111.781 105.532 111.323 105.99C110.864 106.448 110.348 106.677 109.774 106.677C109.2 106.677 108.683 106.448 108.225 105.99Z" fill="#1C1B1F"/>
</g>
<defs>
<linearGradient id="paint0_linear_1_332" x1="41.4995" y1="33" x2="79.4995" y2="80" gradientUnits="userSpaceOnUse">
<stop stop-color="#50AF95"/>
<stop offset="1" stop-color="#50AF95" stop-opacity="0"/>
</linearGradient>
</defs>
</svg>
