<svg width="25" height="24" viewBox="0 0 25 24" fill="none" xmlns="http://www.w3.org/2000/svg">
<mask id="mask0_1_165" style="mask-type:alpha" maskUnits="userSpaceOnUse" x="1" y="-1" width="25" height="25">
<rect x="1.05176" y="-0.414062" width="24" height="24" fill="#D9D9D9"/>
</mask>
<g mask="url(#mask0_1_165)">
<path d="M10.6015 16.8634C10.481 16.8634 10.3689 16.8441 10.265 16.8057C10.1612 16.7672 10.0625 16.7012 9.96887 16.6076L5.79387 12.4326C5.649 12.2878 5.57913 12.1096 5.58425 11.898C5.58938 11.6865 5.66438 11.5083 5.80925 11.3634C5.95411 11.2185 6.12975 11.1461 6.33617 11.1461C6.54257 11.1461 6.7182 11.2185 6.86307 11.3634L10.6015 15.1019L19.24 6.46342C19.3849 6.31854 19.5631 6.24609 19.7746 6.24609C19.9862 6.24609 20.1644 6.31854 20.3092 6.46342C20.4541 6.60829 20.5265 6.78649 20.5265 6.99802C20.5265 7.20955 20.4541 7.38775 20.3092 7.53262L11.2342 16.6076C11.1406 16.7012 11.0419 16.7672 10.9381 16.8057C10.8342 16.8441 10.7221 16.8634 10.6015 16.8634Z" fill="#50AF95"/>
</g>
</svg>
