<svg width="25" height="24" viewBox="0 0 25 24" fill="none" xmlns="http://www.w3.org/2000/svg">
<mask id="mask0_1_164" style="mask-type:alpha" maskUnits="userSpaceOnUse" x="0" y="0" width="25" height="24">
<rect x="0.851562" width="24" height="24" fill="#D9D9D9"/>
</mask>
<g mask="url(#mask0_1_164)">
<path d="M12.8515 13.0543L7.77845 18.1274C7.64 18.2658 7.46597 18.3367 7.25635 18.3399C7.04675 18.3431 6.86952 18.2723 6.72465 18.1274C6.57977 17.9825 6.50732 17.8069 6.50732 17.6005C6.50732 17.3941 6.57977 17.2184 6.72465 17.0736L11.7977 12.0005L6.72465 6.92738C6.58618 6.78893 6.51535 6.61489 6.51215 6.40527C6.50893 6.19568 6.57977 6.01844 6.72465 5.87358C6.86952 5.72869 7.04515 5.65625 7.25155 5.65625C7.45795 5.65625 7.63358 5.72869 7.77845 5.87358L12.8515 10.9467L17.9246 5.87358C18.0631 5.73511 18.2371 5.66428 18.4467 5.66108C18.6563 5.65786 18.8336 5.72869 18.9784 5.87358C19.1233 6.01844 19.1958 6.19408 19.1958 6.40048C19.1958 6.60688 19.1233 6.78251 18.9784 6.92738L13.9054 12.0005L18.9784 17.0736C19.1169 17.212 19.1877 17.3861 19.1909 17.5957C19.1942 17.8053 19.1233 17.9825 18.9784 18.1274C18.8336 18.2723 18.6579 18.3447 18.4515 18.3447C18.2451 18.3447 18.0695 18.2723 17.9246 18.1274L12.8515 13.0543Z" fill="#D63650"/>
</g>
</svg>
