<?xml version="1.0" encoding="UTF-8"?>
<svg xmlns:xodm="http://www.corel.com/coreldraw/odm/2003" xmlns="http://www.w3.org/2000/svg" xmlns:xlink="http://www.w3.org/1999/xlink" version="1.1" id="Layer_1" x="0px" y="0px" viewBox="0 0 2500 2500" style="enable-background:new 0 0 2500 2500;" xml:space="preserve">
<style type="text/css">
	.st0{fill:#F0B90B;}
</style>
<g id="Layer_x0020_1">
	<g id="_2082423932144">
		<path d="M1250,0c690.3,0,1250,559.7,1250,1250c0,690.3-559.7,1250-1250,1250C559.7,2500,0,1940.3,0,1250C0,559.7,559.7,0,1250,0    L1250,0z"></path>
		<path class="st0" d="M400,1250.4l212.3-212.3l212.3,212.3l-212.3,212.3L400,1250.4z M1887.7,1036.7l-851,851L1249,2100l851-851    L1887.7,1036.7z M718.4,1568.8l851-851l212.3,212.3l-851,851L718.4,1568.8L718.4,1568.8z M718,932.5L1250.5,400l212.3,212.3    l-532.5,532.5L718,932.5z"></path>
	</g>
</g>
</svg>
