<svg width="25" height="24" viewBox="0 0 25 24" fill="none" xmlns="http://www.w3.org/2000/svg">
<path d="M12.8864 0.129218V0.141041C12.8982 0.200154 12.8982 0.27109 12.8982 0.342026V8.86616C12.8864 8.91346 12.8509 8.92528 12.8154 8.94892C12.5672 9.06715 12.3307 9.17355 12.0824 9.27996C11.7396 9.43365 11.3849 9.59917 11.042 9.75286L9.80066 10.3204C9.45781 10.474 9.11495 10.6277 8.78392 10.7814C8.38194 10.9706 7.96815 11.1479 7.56618 11.3371C7.22332 11.4908 6.88047 11.6563 6.52579 11.81C6.24204 11.9401 5.9583 12.0583 5.68638 12.1883C5.66273 12.2002 5.63909 12.212 5.61544 12.212C5.60362 12.212 5.60362 12.212 5.5918 12.2002L5.91101 11.6681C6.52579 10.6514 7.12874 9.64646 7.74352 8.62971C8.39377 7.54203 9.05584 6.45434 9.70608 5.36666C10.309 4.36173 10.9238 3.3568 11.5268 2.35188C11.9642 1.61887 12.4135 0.885868 12.8509 0.152863C12.8627 0.129218 12.8746 0.117395 12.8746 0.09375H12.8864C12.8746 0.105573 12.8864 0.117395 12.8864 0.129218Z" fill="#8A92B2"/>
<path d="M20.146 12.1997L20.1579 12.2115L18.4199 13.2401L12.9579 16.4677C12.9342 16.4795 12.9106 16.4913 12.8987 16.5032C12.8633 16.5032 12.8633 16.4677 12.8633 16.4559V16.3495V9.04307C12.8633 9.0076 12.8633 8.96031 12.8751 8.92484C12.8869 8.87755 12.9224 8.88938 12.9579 8.9012C13.1116 8.97214 13.2771 9.04307 13.4308 9.11401C13.8919 9.32682 14.3529 9.53962 14.814 9.74061C15.216 9.91795 15.6061 10.1071 16.0081 10.2845C16.4101 10.4618 16.8121 10.651 17.214 10.8283C17.5569 10.982 17.9116 11.1475 18.2544 11.3012C18.5973 11.4549 18.952 11.6204 19.2948 11.7741C19.5667 11.8923 19.8387 12.0224 20.1106 12.1406C20.1106 12.1761 20.1224 12.1879 20.146 12.1997Z" fill="#454A75"/>
<path d="M12.8864 23.8438C12.8864 23.8556 12.8746 23.8674 12.8746 23.8793H12.8627C12.8627 23.8556 12.8391 23.8438 12.8273 23.8201C12.0943 22.7916 11.3613 21.7512 10.6283 20.7226C9.88342 19.6704 9.12677 18.6064 8.38194 17.5541C7.66076 16.5374 6.92776 15.5088 6.20658 14.4921C6.01741 14.2201 5.82825 13.96 5.63909 13.6881C5.62726 13.6645 5.61544 13.6527 5.5918 13.6172C5.62726 13.6172 5.65091 13.6408 5.66273 13.6527C6.6913 14.2556 7.70805 14.8586 8.73662 15.4615C9.91889 16.1591 11.0893 16.8566 12.2716 17.5541L12.8746 17.9088C12.8982 17.9325 12.8982 17.9561 12.8982 17.9797V23.6783C12.8982 23.7374 12.8982 23.7965 12.8864 23.8438Z" fill="#8A92B2"/>
<path d="M5.58008 12.2246V12.2128C5.9584 12.0473 6.32491 11.8699 6.70323 11.7044C7.18796 11.4798 7.67269 11.267 8.15742 11.0423C8.52392 10.8768 8.90225 10.6995 9.26875 10.534C9.81259 10.2857 10.3446 10.0492 10.8885 9.80097C11.255 9.63545 11.6215 9.46994 11.9998 9.2926C12.2599 9.17437 12.5318 9.05614 12.7919 8.93792C12.8155 8.92609 12.851 8.91427 12.8628 8.89062C12.8747 8.89062 12.8747 8.90245 12.8628 8.91427V16.4217C12.8628 16.4571 12.851 16.4926 12.8747 16.5162C12.851 16.5517 12.8274 16.5162 12.8155 16.5044C12.7091 16.4453 12.6027 16.3862 12.4963 16.3153C10.2146 14.9675 7.92096 13.6079 5.63919 12.2601C5.62737 12.2483 5.60372 12.2364 5.58008 12.2246Z" fill="#62688F"/>
<path d="M20.1223 13.6172H20.1341C20.1341 13.6408 20.1105 13.6645 20.0986 13.6881C17.9233 16.7502 15.7479 19.8241 13.5725 22.8862C13.3479 23.2054 13.1115 23.5246 12.8868 23.8438C12.875 23.832 12.875 23.8201 12.875 23.8083V23.7374V18.0034V17.897C13.3716 17.6014 13.8563 17.3177 14.3528 17.0221C16.2681 15.8871 18.1834 14.764 20.0868 13.629C20.0986 13.6408 20.1105 13.629 20.1223 13.6172Z" fill="#62688F"/>
<path d="M12.8752 8.91304V8.88939V8.81846V0.235206C12.8752 0.199738 12.8634 0.176093 12.887 0.140625C15.287 4.12486 17.687 8.09728 20.0752 12.0815C20.0989 12.117 20.1343 12.1643 20.1461 12.2116C19.9806 12.1524 19.8269 12.0697 19.6732 11.9988C19.4841 11.916 19.2831 11.8214 19.0939 11.7387C18.9757 11.6795 18.8457 11.6323 18.7274 11.5731C18.5264 11.4786 18.3255 11.3958 18.1245 11.3012C18.0062 11.2539 17.888 11.1948 17.7698 11.1357L16.9895 10.781C16.8594 10.7219 16.7294 10.6628 16.5875 10.6037L16.02 10.3554C15.9018 10.3081 15.7836 10.249 15.6654 10.1899L14.8851 9.83521C14.755 9.77609 14.625 9.71698 14.4831 9.65787L13.9156 9.40959C13.7856 9.35048 13.6673 9.29136 13.5373 9.23225C13.3126 9.12585 13.088 9.01944 12.8516 8.92486C12.887 8.91304 12.8752 8.91304 12.8752 8.91304Z" fill="#62688F"/>
</svg>
