<svg width="25" height="24" viewBox="0 0 25 24" fill="none" xmlns="http://www.w3.org/2000/svg">
<g clip-path="url(#clip0_1_158)">
<path d="M22.0862 8.02496C21.1487 7.15933 19.8518 5.83746 18.7956 4.89996L18.7331 4.85621C18.6291 4.7727 18.5118 4.70721 18.3862 4.66246C15.8393 4.18746 3.98618 1.97184 3.75493 1.99996C3.69013 2.00904 3.6282 2.03253 3.57368 2.06871L3.51431 2.11559C3.4412 2.18984 3.38567 2.27954 3.35181 2.37809L3.33618 2.41871V2.64059V2.67496C4.67056 6.39058 9.93931 18.5625 10.9768 21.4187C11.0393 21.6125 11.1581 21.9812 11.3799 22H11.4299C11.5487 22 12.0549 21.3312 12.0549 21.3312C12.0549 21.3312 21.1049 10.3562 22.0206 9.18746C22.1391 9.04349 22.2437 8.88864 22.3331 8.72496C22.3559 8.5969 22.3451 8.46511 22.3018 8.34243C22.2586 8.21976 22.1843 8.11038 22.0862 8.02496ZM14.3768 9.30308L18.2393 6.09996L20.5049 8.18746L14.3768 9.30308ZM12.8768 9.09371L6.22681 3.64371L16.9862 5.62808L12.8768 9.09371ZM13.4768 10.5218L20.2831 9.42496L12.5018 18.8L13.4768 10.5218ZM5.32368 4.18746L12.3206 10.125L11.3081 18.8062L5.32368 4.18746Z" fill="#FF060A"/>
</g>
<defs>
<clipPath id="clip0_1_158">
<rect width="20" height="20" fill="white" transform="translate(2.85156 2)"/>
</clipPath>
</defs>
</svg>
