<svg width="25" height="24" viewBox="0 0 25 24" fill="none" xmlns="http://www.w3.org/2000/svg">
<g clip-path="url(#clip0_1_159)">
<path d="M24.8298 11.995C24.8298 18.5896 19.4841 23.9353 12.8895 23.9353C6.29513 23.9353 0.949219 18.5896 0.949219 11.995C0.949219 5.40048 6.29513 0.0546875 12.8895 0.0546875C19.4841 0.0546875 24.8298 5.40048 24.8298 11.995Z" fill="#1BA27A"/>
<path d="M18.4938 6.07422H7.1875V8.80377H11.4759V12.8157H14.2054V8.80377H18.4938V6.07422Z" fill="white"/>
<path d="M12.867 13.2441C9.31949 13.2441 6.44343 12.6827 6.44343 11.99C6.44343 11.2975 9.31937 10.7359 12.867 10.7359C16.4144 10.7359 19.2904 11.2975 19.2904 11.99C19.2904 12.6827 16.4144 13.2441 12.867 13.2441ZM20.0795 12.1991C20.0795 11.306 16.8504 10.582 12.867 10.582C8.88367 10.582 5.6543 11.306 5.6543 12.1991C5.6543 12.9856 8.1583 13.6409 11.4764 13.7861V19.5454H14.2057V13.7884C17.5493 13.6477 20.0795 12.9897 20.0795 12.1991Z" fill="white"/>
</g>
<defs>
<clipPath id="clip0_1_159">
<rect width="24" height="24" fill="white" transform="translate(0.851562)"/>
</clipPath>
</defs>
</svg>
