<svg xmlns="http://www.w3.org/2000/svg" viewBox="0 0 26 26" width="26px" height="26px"><path d="M 14.976563 2.71875 L 15.976563 16 L 19.125 16 C 19.453125 16 19.699219 16.160156 19.945313 16.480469 C 20.027344 16.800781 20.027344 17.121094 19.863281 17.359375 C 17.566406 20.640625 13.71875 23.761719 13.554688 23.839844 C 13.398438 23.917969 13.164063 23.992188 13 23.996094 C 12.996094 23.996094 12.988281 24 12.984375 24 C 12.820313 24 12.574219 23.921875 12.492188 23.839844 C 12.328125 23.761719 8.46875 20.71875 6.171875 17.359375 C 6.007813 17.039063 5.925781 16.71875 6.089844 16.480469 C 6.253906 16.160156 6.5 16 6.828125 16 L 9.976563 16 L 10.976563 2.71875 C 11.296875 2.320313 12.101563 2 12.984375 2 C 13.78125 2 14.65625 2.238281 14.976563 2.71875 Z"/></svg>