<svg xmlns="http://www.w3.org/2000/svg" viewBox="0 0 26 26" width="26px" height="26px"><path d="M 14.976563 23.28125 L 15.976563 10 L 19.125 10 C 19.453125 10 19.699219 9.839844 19.945313 9.519531 C 20.027344 9.199219 20.027344 8.878906 19.863281 8.640625 C 17.566406 5.359375 13.71875 2.238281 13.554688 2.160156 C 13.398438 2.082031 13.164063 2.007813 13 2.003906 C 12.996094 2.003906 12.988281 2 12.984375 2 C 12.820313 2 12.574219 2.078125 12.492188 2.160156 C 12.328125 2.238281 8.46875 5.28125 6.171875 8.640625 C 6.007813 8.960938 5.925781 9.28125 6.089844 9.519531 C 6.253906 9.839844 6.5 10 6.828125 10 L 9.976563 10 L 10.976563 23.28125 C 11.296875 23.679688 12.101563 24 12.984375 24 C 13.78125 24 14.65625 23.761719 14.976563 23.28125 Z"/></svg>