<svg width="1181" height="500" viewBox="0 0 1181 500" fill="none" xmlns="http://www.w3.org/2000/svg">
<path d="M501.312 295.98C473.856 295.98 453.132 274.464 453.132 246.48C453.132 218.496 473.856 197.244 501.312 197.244C528.768 197.244 549.492 218.496 549.492 246.48C549.492 274.464 528.768 295.98 501.312 295.98ZM501.312 282.912C521.376 282.912 534.444 266.808 534.444 246.48C534.444 226.152 521.376 210.312 501.312 210.312C481.248 210.312 468.18 226.152 468.18 246.48C468.18 266.808 481.248 282.912 501.312 282.912ZM566.197 294H551.149L575.965 258.228L552.733 224.04H568.177L585.469 250.44L602.761 224.04H617.149L594.181 258.624L618.733 294H603.421L584.677 266.148L566.197 294ZM683.014 224.04L648.034 319.476H633.514L643.546 293.076L615.958 224.04H630.346L650.674 277.368L669.55 224.04H683.014ZM714.016 320.928C695.668 320.928 683.788 311.16 682.996 295.32H695.932C696.724 305.088 703.06 310.368 713.884 310.368C725.896 310.368 732.232 303.9 732.232 291.888V279.216C728.272 287.664 720.352 292.548 710.848 292.548C693.424 292.548 681.016 278.16 681.016 257.568C681.016 236.712 692.896 222.72 710.452 222.72C720.484 222.72 728.404 227.604 733.156 236.448V224.04H745.564V291.624C745.564 309.972 733.816 320.928 714.016 320.928ZM694.48 257.568C694.48 272.088 701.608 280.932 713.224 280.932C724.576 280.932 732.232 271.824 732.232 257.964C732.232 243.444 724.708 234.204 713.224 234.204C701.74 234.204 694.48 243.18 694.48 257.568ZM788.281 295.32C768.085 295.32 754.489 280.668 754.489 258.624C754.489 237.9 768.613 222.72 787.885 222.72C808.741 222.72 822.601 239.616 820.225 262.32H768.085C769.141 276.576 776.269 284.892 788.017 284.892C797.917 284.892 804.781 279.48 807.025 270.372H820.225C816.793 285.948 804.781 295.32 788.281 295.32ZM787.621 232.752C776.929 232.752 769.669 240.408 768.217 253.476H806.101C805.441 240.54 798.445 232.752 787.621 232.752ZM843.217 254.532V294H829.885V224.04H842.293V235.656C847.045 227.868 854.965 222.72 864.601 222.72C878.989 222.72 888.493 231.96 888.493 248.724V294H875.161V253.212C875.161 241.2 869.881 234.468 859.981 234.468C850.873 234.468 843.217 242.124 843.217 254.532ZM935.606 261H917.258V294H902.738V199.224H935.606C956.858 199.224 970.586 210.048 970.586 229.848C970.586 249.78 956.858 261 935.606 261ZM935.474 211.5H917.258V248.724H935.474C948.278 248.724 956.066 241.728 956.066 229.98C956.066 218.232 948.278 211.5 935.474 211.5ZM1020.62 294V283.176C1016.27 290.964 1008.48 295.32 998.181 295.32C983.661 295.32 974.157 287.004 974.157 274.2C974.157 260.472 985.113 253.344 1005.97 253.344C1010.06 253.344 1013.36 253.476 1019.04 254.136V248.988C1019.04 238.956 1013.63 233.28 1004.39 233.28C994.617 233.28 988.677 239.088 988.281 248.856H976.137C976.797 233.148 988.017 222.72 1004.39 222.72C1021.68 222.72 1031.71 232.488 1031.71 249.12V294H1020.62ZM986.829 273.804C986.829 281.064 992.241 285.816 1000.82 285.816C1012.04 285.816 1019.04 278.82 1019.04 268.128V262.452C1013.89 261.792 1010.19 261.66 1006.76 261.66C993.429 261.66 986.829 265.62 986.829 273.804ZM1100.91 224.04L1065.93 319.476H1051.41L1061.44 293.076L1033.85 224.04H1048.24L1068.57 277.368L1087.44 224.04H1100.91Z" fill="#4FA990"/>
<g clip-path="url(#clip0_104_2)">
<g filter="url(#filter0_dd_104_2)">
<path d="M311.039 93H150.961C108.457 93 74 127.457 74 169.961V330.039C74 372.543 108.457 407 150.961 407H311.039C353.543 407 388 372.543 388 330.039V169.961C388 127.457 353.543 93 311.039 93Z" fill="black"/>
<path d="M311.039 93H150.961C108.457 93 74 127.457 74 169.961V330.039C74 372.543 108.457 407 150.961 407H311.039C353.543 407 388 372.543 388 330.039V169.961C388 127.457 353.543 93 311.039 93Z" fill="url(#paint0_linear_104_2)"/>
<path d="M231.004 370.059C297.311 370.059 351.063 316.307 351.063 250C351.063 183.693 297.311 129.941 231.004 129.941C164.697 129.941 110.945 183.693 110.945 250C110.945 316.307 164.697 370.059 231.004 370.059Z" fill="url(#paint1_radial_104_2)"/>
<path d="M293.988 317.758H266.833L280.831 303.061C288.529 295.362 293.289 290.043 293.289 282.484C293.289 273.666 285.73 266.387 274.252 266.387C263.054 266.387 254.515 273.526 254.515 284.024H261.374C261.374 277.305 266.273 272.826 273.832 272.826C281.111 272.826 285.87 277.445 285.87 283.184C285.87 289.343 281.811 293.822 275.512 300.121L255.915 319.998V324.057H293.988V317.758Z" fill="#50AF95"/>
</g>
</g>
<defs>
<filter id="filter0_dd_104_2" x="72.4608" y="91.4608" width="317.078" height="317.078" filterUnits="userSpaceOnUse" color-interpolation-filters="sRGB">
<feFlood flood-opacity="0" result="BackgroundImageFix"/>
<feColorMatrix in="SourceAlpha" type="matrix" values="0 0 0 0 0 0 0 0 0 0 0 0 0 0 0 0 0 0 127 0" result="hardAlpha"/>
<feOffset dx="-0.769608" dy="-0.769608"/>
<feGaussianBlur stdDeviation="0.384804"/>
<feComposite in2="hardAlpha" operator="out"/>
<feColorMatrix type="matrix" values="0 0 0 0 1 0 0 0 0 1 0 0 0 0 1 0 0 0 0.07 0"/>
<feBlend mode="normal" in2="BackgroundImageFix" result="effect1_dropShadow_104_2"/>
<feColorMatrix in="SourceAlpha" type="matrix" values="0 0 0 0 0 0 0 0 0 0 0 0 0 0 0 0 0 0 127 0" result="hardAlpha"/>
<feOffset dx="0.769608" dy="0.769608"/>
<feGaussianBlur stdDeviation="0.384804"/>
<feComposite in2="hardAlpha" operator="out"/>
<feColorMatrix type="matrix" values="0 0 0 0 0.104167 0 0 0 0 0.104167 0 0 0 0 0.104167 0 0 0 1 0"/>
<feBlend mode="normal" in2="effect1_dropShadow_104_2" result="effect2_dropShadow_104_2"/>
<feBlend mode="normal" in="SourceGraphic" in2="effect2_dropShadow_104_2" result="shape"/>
</filter>
<linearGradient id="paint0_linear_104_2" x1="77.848" y1="96.4632" x2="356.061" y2="407" gradientUnits="userSpaceOnUse">
<stop stop-color="#272727"/>
<stop offset="1" stop-color="#090909"/>
</linearGradient>
<radialGradient id="paint1_radial_104_2" cx="0" cy="0" r="1" gradientUnits="userSpaceOnUse" gradientTransform="translate(231.004 250) rotate(90) scale(120.059)">
<stop offset="0.734375" stop-color="#50AF95" stop-opacity="0"/>
<stop offset="1" stop-color="#50AF95"/>
</radialGradient>
<clipPath id="clip0_104_2">
<rect width="314" height="314" fill="white" transform="translate(74 93)"/>
</clipPath>
</defs>
</svg>
